<svg xmlns="http://www.w3.org/2000/svg" xmlns:xlink="http://www.w3.org/1999/xlink" contentStyleType="text/css" data-diagram-type="SEQUENCE" height="1444px" preserveAspectRatio="none" style="width:1319px;height:1444px;background:#FFFFFF;" version="1.1" viewBox="0 0 1319 1444" width="1319px" zoomAndPan="magnify"><title>WASI-USB transfer lifecycle
//async submit/await with libusb event thread + Tokio oneshot//</title><defs/><g><text fill="#000000" font-family="'Helvetica'" font-size="22" font-weight="bold" lengthAdjust="spacing" textLength="292.1982" x="512.1538" y="31.9404">WASI-USB transfer lifecycle</text><text fill="#000000" font-family="'Helvetica'" font-size="22" font-style="italic" font-weight="bold" lengthAdjust="spacing" textLength="635.0566" x="340.7246" y="53.9404">async submit/await with libusb event thread + Tokio oneshot</text><g><title>Guest</title><rect fill="#000000" fill-opacity="0.00000" height="737" width="8" x="43.9941" y="109"/><line style="stroke:#888888;stroke-width:1;stroke-dasharray:5,5;" x1="47" x2="47" y1="109" y2="846"/></g><line style="stroke:#888888;stroke-width:1;stroke-dasharray:1,4;" x1="47" x2="47" y1="846" y2="886"/><g><title>Guest</title><rect fill="#000000" fill-opacity="0.00000" height="515" width="8" x="43.9941" y="886"/><line style="stroke:#888888;stroke-width:1;stroke-dasharray:5,5;" x1="47" x2="47" y1="886" y2="1401"/></g><g><title>WIT boundary</title><rect fill="#000000" fill-opacity="0.00000" height="737" width="8" x="282.0957" y="109"/><line style="stroke:#888888;stroke-width:1;stroke-dasharray:5,5;" x1="286.0752" x2="286.0752" y1="109" y2="846"/></g><line style="stroke:#888888;stroke-width:1;stroke-dasharray:1,4;" x1="286.0752" x2="286.0752" y1="846" y2="886"/><g><title>WIT boundary</title><rect fill="#000000" fill-opacity="0.00000" height="515" width="8" x="282.0957" y="886"/><line style="stroke:#888888;stroke-width:1;stroke-dasharray:5,5;" x1="286.0752" x2="286.0752" y1="886" y2="1401"/></g><g><title>main.rs</title><rect fill="#000000" fill-opacity="0.00000" height="737" width="8" x="474.1836" y="109"/><line style="stroke:#888888;stroke-width:1;stroke-dasharray:5,5;" x1="477.5137" x2="477.5137" y1="109" y2="846"/></g><line style="stroke:#888888;stroke-width:1;stroke-dasharray:1,4;" x1="477.5137" x2="477.5137" y1="846" y2="886"/><g><title>main.rs</title><rect fill="#000000" fill-opacity="0.00000" height="515" width="8" x="474.1836" y="886"/><line style="stroke:#888888;stroke-width:1;stroke-dasharray:5,5;" x1="477.5137" x2="477.5137" y1="886" y2="1401"/></g><g><title>ResourceTable</title><rect fill="#000000" fill-opacity="0.00000" height="737" width="8" x="743.6328" y="109"/><line style="stroke:#888888;stroke-width:1;stroke-dasharray:5,5;" x1="746.9453" x2="746.9453" y1="109" y2="846"/></g><line style="stroke:#888888;stroke-width:1;stroke-dasharray:1,4;" x1="746.9453" x2="746.9453" y1="846" y2="886"/><g><title>ResourceTable</title><rect fill="#000000" fill-opacity="0.00000" height="515" width="8" x="743.6328" y="886"/><line style="stroke:#888888;stroke-width:1;stroke-dasharray:5,5;" x1="746.9453" x2="746.9453" y1="886" y2="1401"/></g><g><title>libusb</title><rect fill="#000000" fill-opacity="0.00000" height="737" width="8" x="843.9971" y="109"/><line style="stroke:#888888;stroke-width:1;stroke-dasharray:5,5;" x1="847.3203" x2="847.3203" y1="109" y2="846"/></g><line style="stroke:#888888;stroke-width:1;stroke-dasharray:1,4;" x1="847.3203" x2="847.3203" y1="846" y2="886"/><g><title>libusb</title><rect fill="#000000" fill-opacity="0.00000" height="515" width="8" x="843.9971" y="886"/><line style="stroke:#888888;stroke-width:1;stroke-dasharray:5,5;" x1="847.3203" x2="847.3203" y1="886" y2="1401"/></g><g><title>libusb event</title><rect fill="#000000" fill-opacity="0.00000" height="737" width="8" x="935.6953" y="109"/><line style="stroke:#888888;stroke-width:1;stroke-dasharray:5,5;" x1="939.6738" x2="939.6738" y1="109" y2="846"/></g><line style="stroke:#888888;stroke-width:1;stroke-dasharray:1,4;" x1="939.6738" x2="939.6738" y1="846" y2="886"/><g><title>libusb event</title><rect fill="#000000" fill-opacity="0.00000" height="515" width="8" x="935.6953" y="886"/><line style="stroke:#888888;stroke-width:1;stroke-dasharray:5,5;" x1="939.6738" x2="939.6738" y1="886" y2="1401"/></g><g><title>transfer_callback</title><rect fill="#000000" fill-opacity="0.00000" height="737" width="8" x="1141.7754" y="109"/><line style="stroke:#888888;stroke-width:1;stroke-dasharray:5,5;" x1="1145.4209" x2="1145.4209" y1="109" y2="846"/></g><line style="stroke:#888888;stroke-width:1;stroke-dasharray:1,4;" x1="1145.4209" x2="1145.4209" y1="846" y2="886"/><g><title>transfer_callback</title><rect fill="#000000" fill-opacity="0.00000" height="515" width="8" x="1141.7754" y="886"/><line style="stroke:#888888;stroke-width:1;stroke-dasharray:5,5;" x1="1145.4209" x2="1145.4209" y1="886" y2="1401"/></g><g class="participant participant-head" data-participant="G"><rect fill="#FFFFFF" height="38" rx="2.5" ry="2.5" style="stroke:#444444;stroke-width:1;" width="55.9883" x="20" y="70"/><text fill="#000000" font-family="'Helvetica'" font-size="12" lengthAdjust="spacing" textLength="32.0156" x="31.9863" y="86.2402">Guest</text><text fill="#000000" font-family="'Helvetica'" font-size="12" lengthAdjust="spacing" textLength="41.9883" x="27" y="98.2402">(Wasm)</text></g><g class="participant participant-tail" data-participant="G"><rect fill="#FFFFFF" height="38" rx="2.5" ry="2.5" style="stroke:#444444;stroke-width:1;" width="55.9883" x="20" y="1400"/><text fill="#000000" font-family="'Helvetica'" font-size="12" lengthAdjust="spacing" textLength="32.0156" x="31.9863" y="1416.2402">Guest</text><text fill="#000000" font-family="'Helvetica'" font-size="12" lengthAdjust="spacing" textLength="41.9883" x="27" y="1428.2402">(Wasm)</text></g><g class="participant participant-head" data-participant="WIT"><rect fill="#FFFFFF" height="38" rx="2.5" ry="2.5" style="stroke:#444444;stroke-width:1;" width="122.041" x="225.0752" y="70"/><text fill="#000000" font-family="'Helvetica'" font-size="12" lengthAdjust="spacing" textLength="75.3633" x="248.4141" y="86.2402">WIT boundary</text><text fill="#000000" font-family="'Helvetica'" font-size="12" lengthAdjust="spacing" textLength="108.041" x="232.0752" y="98.2402">(wasmtime bindgen)</text></g><g class="participant participant-tail" data-participant="WIT"><rect fill="#FFFFFF" height="38" rx="2.5" ry="2.5" style="stroke:#444444;stroke-width:1;" width="122.041" x="225.0752" y="1400"/><text fill="#000000" font-family="'Helvetica'" font-size="12" lengthAdjust="spacing" textLength="75.3633" x="248.4141" y="1416.2402">WIT boundary</text><text fill="#000000" font-family="'Helvetica'" font-size="12" lengthAdjust="spacing" textLength="108.041" x="232.0752" y="1428.2402">(wasmtime bindgen)</text></g><g class="participant participant-head" data-participant="H"><rect fill="#FFFFFF" height="38" rx="2.5" ry="2.5" style="stroke:#444444;stroke-width:1;" width="53.3398" x="451.5137" y="70"/><text fill="#000000" font-family="'Helvetica'" font-size="12" lengthAdjust="spacing" textLength="39.3398" x="458.5137" y="86.2402">main.rs</text><text fill="#000000" font-family="'Helvetica'" font-size="12" lengthAdjust="spacing" textLength="30.6738" x="462.8467" y="98.2402">(host)</text></g><g class="participant participant-tail" data-participant="H"><rect fill="#FFFFFF" height="38" rx="2.5" ry="2.5" style="stroke:#444444;stroke-width:1;" width="53.3398" x="451.5137" y="1400"/><text fill="#000000" font-family="'Helvetica'" font-size="12" lengthAdjust="spacing" textLength="39.3398" x="458.5137" y="1416.2402">main.rs</text><text fill="#000000" font-family="'Helvetica'" font-size="12" lengthAdjust="spacing" textLength="30.6738" x="462.8467" y="1428.2402">(host)</text></g><g class="participant participant-head" data-participant="RT"><rect fill="#FFFFFF" height="26" rx="2.5" ry="2.5" style="stroke:#444444;stroke-width:1;" width="95.375" x="699.9453" y="82"/><text fill="#000000" font-family="'Helvetica'" font-size="12" lengthAdjust="spacing" textLength="81.375" x="706.9453" y="98.2402">ResourceTable</text></g><g class="participant participant-tail" data-participant="RT"><rect fill="#FFFFFF" height="26" rx="2.5" ry="2.5" style="stroke:#444444;stroke-width:1;" width="95.375" x="699.9453" y="1400"/><text fill="#000000" font-family="'Helvetica'" font-size="12" lengthAdjust="spacing" textLength="81.375" x="706.9453" y="1416.2402">ResourceTable</text></g><g class="participant participant-head" data-participant="LU"><rect fill="#FFFFFF" height="26" rx="2.5" ry="2.5" style="stroke:#444444;stroke-width:1;" width="45.3535" x="825.3203" y="82"/><text fill="#000000" font-family="'Helvetica'" font-size="12" lengthAdjust="spacing" textLength="31.3535" x="832.3203" y="98.2402">libusb</text></g><g class="participant participant-tail" data-participant="LU"><rect fill="#FFFFFF" height="26" rx="2.5" ry="2.5" style="stroke:#444444;stroke-width:1;" width="45.3535" x="825.3203" y="1400"/><text fill="#000000" font-family="'Helvetica'" font-size="12" lengthAdjust="spacing" textLength="31.3535" x="832.3203" y="1416.2402">libusb</text></g><g class="participant participant-head" data-participant="ET"><rect fill="#FFFFFF" height="38" rx="2.5" ry="2.5" style="stroke:#444444;stroke-width:1;" width="78.043" x="900.6738" y="70"/><text fill="#000000" font-family="'Helvetica'" font-size="12" lengthAdjust="spacing" textLength="64.043" x="907.6738" y="86.2402">libusb event</text><text fill="#000000" font-family="'Helvetica'" font-size="12" lengthAdjust="spacing" textLength="34.0254" x="922.6826" y="98.2402">thread</text></g><g class="participant participant-tail" data-participant="ET"><rect fill="#FFFFFF" height="38" rx="2.5" ry="2.5" style="stroke:#444444;stroke-width:1;" width="78.043" x="900.6738" y="1400"/><text fill="#000000" font-family="'Helvetica'" font-size="12" lengthAdjust="spacing" textLength="64.043" x="907.6738" y="1416.2402">libusb event</text><text fill="#000000" font-family="'Helvetica'" font-size="12" lengthAdjust="spacing" textLength="34.0254" x="922.6826" y="1428.2402">thread</text></g><g class="participant participant-head" data-participant="CB"><rect fill="#FFFFFF" height="38" rx="2.5" ry="2.5" style="stroke:#444444;stroke-width:1;" width="104.709" x="1093.4209" y="70"/><text fill="#000000" font-family="'Helvetica'" font-size="12" lengthAdjust="spacing" textLength="90.709" x="1100.4209" y="86.2402">transfer_callback</text><text fill="#000000" font-family="'Helvetica'" font-size="12" lengthAdjust="spacing" textLength="39.334" x="1126.1084" y="98.2402">(C ABI)</text></g><g class="participant participant-tail" data-participant="CB"><rect fill="#FFFFFF" height="38" rx="2.5" ry="2.5" style="stroke:#444444;stroke-width:1;" width="104.709" x="1093.4209" y="1400"/><text fill="#000000" font-family="'Helvetica'" font-size="12" lengthAdjust="spacing" textLength="90.709" x="1100.4209" y="1416.2402">transfer_callback</text><text fill="#000000" font-family="'Helvetica'" font-size="12" lengthAdjust="spacing" textLength="39.334" x="1126.1084" y="1428.2402">(C ABI)</text></g><rect fill="#FFFFFF" height="3" style="stroke:#FFFFFF;stroke-width:1;" width="1307.5059" x="5" y="138"/><line style="stroke:#000000;stroke-width:0.5;" x1="5" x2="1312.5059" y1="138" y2="138"/><line style="stroke:#000000;stroke-width:0.5;" x1="5" x2="1312.5059" y1="141" y2="141"/><rect fill="#FFFFFF" height="20" style="stroke:#000000;stroke-width:1;" width="64.0156" x="626.7451" y="129"/><text fill="#000000" font-family="'Helvetica'" font-size="12" font-weight="bold" lengthAdjust="spacing" textLength="46.6816" x="632.7451" y="142.2402">Allocate</text><g class="message" data-participant-1="G" data-participant-2="WIT"><polygon fill="#000000" points="274.0957,173,284.0957,177,274.0957,181,278.0957,177" style="stroke:#000000;stroke-width:1;"/><line style="stroke:#000000;stroke-width:1.2;" x1="47.9941" x2="280.0957" y1="177" y2="177"/><text fill="#000000" font-family="'Helvetica'" font-size="12" lengthAdjust="spacing" textLength="214.1016" x="54.9941" y="172.2402">new-transfer(type, setup, buf_size, opts)</text></g><g class="message" data-participant-1="WIT" data-participant-2="H"><polygon fill="#000000" points="466.1836,199,476.1836,203,466.1836,207,470.1836,203" style="stroke:#000000;stroke-width:1;"/><line style="stroke:#000000;stroke-width:1.2;" x1="286.0957" x2="472.1836" y1="203" y2="203"/><text fill="#000000" font-family="'Helvetica'" font-size="12" lengthAdjust="spacing" textLength="87.3633" x="293.0957" y="198.2402">new_transfer(...)</text></g><g class="message" data-participant-1="H" data-participant-2="LU"><polygon fill="#000000" points="835.9971,225,845.9971,229,835.9971,233,839.9971,229" style="stroke:#000000;stroke-width:1;"/><line style="stroke:#000000;stroke-width:1.2;" x1="478.1836" x2="841.9971" y1="229" y2="229"/><text fill="#000000" font-family="'Helvetica'" font-size="12" lengthAdjust="spacing" textLength="162.0762" x="485.1836" y="224.2402">libusb_alloc_transfer(iso_pkts)</text></g><g class="message" data-participant-1="LU" data-participant-2="H"><polygon fill="#000000" points="489.1836,251,479.1836,255,489.1836,259,485.1836,255" style="stroke:#000000;stroke-width:1;"/><line style="stroke:#000000;stroke-width:1.2;stroke-dasharray:2,2;" x1="483.1836" x2="846.9971" y1="255" y2="255"/><text fill="#000000" font-family="'Helvetica'" font-size="12" lengthAdjust="spacing" textLength="99.3633" x="495.1836" y="250.2402">``*libusb_transfer``</text></g><g class="message" data-participant-1="H" data-participant-2="RT"><polygon fill="#000000" points="735.6328,277,745.6328,281,735.6328,285,739.6328,281" style="stroke:#000000;stroke-width:1;"/><line style="stroke:#000000;stroke-width:1.2;" x1="478.1836" x2="741.6328" y1="281" y2="281"/><text fill="#000000" font-family="'Helvetica'" font-size="12" lengthAdjust="spacing" textLength="245.4492" x="485.1836" y="276.2402">push UsbTransfer { ptr, completed, buffer, &#8230; }</text></g><g class="message" data-participant-1="RT" data-participant-2="H"><polygon fill="#000000" points="489.1836,303,479.1836,307,489.1836,311,485.1836,307" style="stroke:#000000;stroke-width:1;"/><line style="stroke:#000000;stroke-width:1.2;stroke-dasharray:2,2;" x1="483.1836" x2="746.6328" y1="307" y2="307"/><text fill="#000000" font-family="'Helvetica'" font-size="12" lengthAdjust="spacing" textLength="157.3945" x="495.1836" y="302.2402">Resource&lt;UsbTransfer&gt; (slot</text><text fill="#000000" font-family="'Helvetica'" font-size="12" font-weight="bold" lengthAdjust="spacing" textLength="8.666" x="655.9121" y="302.2402">K</text><text fill="#000000" font-family="'Helvetica'" font-size="12" lengthAdjust="spacing" textLength="3.334" x="664.5781" y="302.2402">,</text><text fill="#000000" font-family="'Helvetica'" font-size="12" font-weight="bold" lengthAdjust="spacing" textLength="37.998" x="671.2461" y="302.2402">owned</text><text fill="#000000" font-family="'Helvetica'" font-size="12" lengthAdjust="spacing" textLength="3.9961" x="709.2441" y="302.2402">)</text></g><g class="message" data-participant-1="H" data-participant-2="WIT"><polygon fill="#000000" points="297.0957,329,287.0957,333,297.0957,337,293.0957,333" style="stroke:#000000;stroke-width:1;"/><line style="stroke:#000000;stroke-width:1.2;stroke-dasharray:2,2;" x1="291.0957" x2="477.1836" y1="333" y2="333"/><text fill="#000000" font-family="'Helvetica'" font-size="12" lengthAdjust="spacing" textLength="90.7266" x="303.0957" y="328.2402">Resource handle</text></g><g class="message" data-participant-1="WIT" data-participant-2="G"><polygon fill="#000000" points="58.9941,355,48.9941,359,58.9941,363,54.9941,359" style="stroke:#000000;stroke-width:1;"/><line style="stroke:#000000;stroke-width:1.2;stroke-dasharray:2,2;" x1="52.9941" x2="285.0957" y1="359" y2="359"/><text fill="#000000" font-family="'Helvetica'" font-size="12" lengthAdjust="spacing" textLength="40.6816" x="64.9941" y="354.2402">transfer</text></g><rect fill="#FFFFFF" height="3" style="stroke:#FFFFFF;stroke-width:1;" width="1307.5059" x="5" y="386"/><line style="stroke:#000000;stroke-width:0.5;" x1="5" x2="1312.5059" y1="386" y2="386"/><line style="stroke:#000000;stroke-width:0.5;" x1="5" x2="1312.5059" y1="389" y2="389"/><rect fill="#FFFFFF" height="20" style="stroke:#000000;stroke-width:1;" width="57.998" x="629.7539" y="377"/><text fill="#000000" font-family="'Helvetica'" font-size="12" font-weight="bold" lengthAdjust="spacing" textLength="40.6641" x="635.7539" y="390.2402">Submit</text><g class="message" data-participant-1="G" data-participant-2="WIT"><polygon fill="#000000" points="274.0957,421,284.0957,425,274.0957,429,278.0957,425" style="stroke:#000000;stroke-width:1;"/><line style="stroke:#000000;stroke-width:1.2;" x1="47.9941" x2="280.0957" y1="425" y2="425"/><text fill="#000000" font-family="'Helvetica'" font-size="12" lengthAdjust="spacing" textLength="155.3848" x="54.9941" y="420.2402">transfer.submit-transfer(data)</text></g><g class="message" data-participant-1="WIT" data-participant-2="H"><polygon fill="#000000" points="466.1836,447,476.1836,451,466.1836,455,470.1836,451" style="stroke:#000000;stroke-width:1;"/><line style="stroke:#000000;stroke-width:1.2;" x1="286.0957" x2="472.1836" y1="451" y2="451"/><text fill="#000000" font-family="'Helvetica'" font-size="12" lengthAdjust="spacing" textLength="146.0625" x="293.0957" y="446.2402">submit_transfer(self_, data)</text></g><path d="M483,464 L483,498 L834,498 L834,474 L824,464 L483,464" fill="#FFFFFF" style="stroke:#000000;stroke-width:1;"/><path d="M824,464 L824,474 L834,474 L824,464" fill="#FFFFFF" style="stroke:#000000;stroke-width:1;"/><text fill="#000000" font-family="'Helvetica'" font-size="12" lengthAdjust="spacing" textLength="330.8379" x="489" y="478.2402">Build TransferContext{ sender, completed, buffer, iso_results }</text><text fill="#000000" font-family="'Helvetica'" font-size="12" lengthAdjust="spacing" textLength="170.1094" x="489" y="490.2402">(oneshot::channel created here)</text><g class="message" data-participant-1="H" data-participant-2="LU"><polygon fill="#000000" points="835.9971,529,845.9971,533,835.9971,537,839.9971,533" style="stroke:#000000;stroke-width:1;"/><line style="stroke:#000000;stroke-width:1.2;" x1="478.1836" x2="841.9971" y1="533" y2="533"/><text fill="#000000" font-family="'Helvetica'" font-size="12" lengthAdjust="spacing" textLength="147.3926" x="485.1836" y="516.2402">libusb_submit_transfer(*ptr)</text><text fill="#000000" font-family="'Helvetica'" font-size="12" lengthAdjust="spacing" textLength="163.0781" x="485.1836" y="528.2402">user_data = Box::into_raw(ctx)</text></g><g class="message" data-participant-1="LU" data-participant-2="ET"><polygon fill="#000000" points="927.6953,555,937.6953,559,927.6953,563,931.6953,559" style="stroke:#000000;stroke-width:1;"/><line style="stroke:#000000;stroke-width:1.2;stroke-dasharray:2,2;" x1="847.9971" x2="933.6953" y1="559" y2="559"/><text fill="#000000" font-family="'Helvetica'" font-size="12" lengthAdjust="spacing" textLength="40.043" x="854.9971" y="554.2402">queued</text></g><g class="message" data-participant-1="H" data-participant-2="RT"><polygon fill="#000000" points="735.6328,581,745.6328,585,735.6328,589,739.6328,585" style="stroke:#000000;stroke-width:1;"/><line style="stroke:#000000;stroke-width:1.2;" x1="478.1836" x2="741.6328" y1="585" y2="585"/><text fill="#000000" font-family="'Helvetica'" font-size="12" lengthAdjust="spacing" textLength="26.6777" x="485.1836" y="580.2402">store</text><text fill="#000000" font-family="'Helvetica'" font-size="12" font-style="italic" lengthAdjust="spacing" textLength="42.6797" x="515.1953" y="580.2402">receiver</text><text fill="#000000" font-family="'Helvetica'" font-size="12" lengthAdjust="spacing" textLength="42.6855" x="561.209" y="580.2402">in slot K</text></g><g class="message" data-participant-1="H" data-participant-2="WIT"><polygon fill="#000000" points="297.0957,607,287.0957,611,297.0957,615,293.0957,611" style="stroke:#000000;stroke-width:1;"/><line style="stroke:#000000;stroke-width:1.2;stroke-dasharray:2,2;" x1="291.0957" x2="477.1836" y1="611" y2="611"/><text fill="#000000" font-family="'Helvetica'" font-size="12" lengthAdjust="spacing" textLength="15.334" x="303.0957" y="606.2402">Ok</text></g><g class="message" data-participant-1="WIT" data-participant-2="G"><polygon fill="#000000" points="58.9941,633,48.9941,637,58.9941,641,54.9941,637" style="stroke:#000000;stroke-width:1;"/><line style="stroke:#000000;stroke-width:1.2;stroke-dasharray:2,2;" x1="52.9941" x2="285.0957" y1="637" y2="637"/><text fill="#000000" font-family="'Helvetica'" font-size="12" lengthAdjust="spacing" textLength="15.334" x="64.9941" y="632.2402">Ok</text></g><rect fill="#FFFFFF" height="3" style="stroke:#FFFFFF;stroke-width:1;" width="1307.5059" x="5" y="664"/><line style="stroke:#000000;stroke-width:0.5;" x1="5" x2="1312.5059" y1="664" y2="664"/><line style="stroke:#000000;stroke-width:0.5;" x1="5" x2="1312.5059" y1="667" y2="667"/><rect fill="#FFFFFF" height="20" style="stroke:#000000;stroke-width:1;" width="88.0156" x="614.7451" y="655"/><text fill="#000000" font-family="'Helvetica'" font-size="12" font-weight="bold" lengthAdjust="spacing" textLength="70.6816" x="620.7451" y="668.2402">Wait (async)</text><g class="message" data-participant-1="G" data-participant-2="WIT"><polygon fill="#000000" points="274.0957,699,284.0957,703,274.0957,707,278.0957,703" style="stroke:#000000;stroke-width:1;"/><line style="stroke:#000000;stroke-width:1.2;" x1="47.9941" x2="280.0957" y1="703" y2="703"/><text fill="#000000" font-family="'Helvetica'" font-size="12" lengthAdjust="spacing" textLength="76.6875" x="54.9941" y="698.2402">await-transfer(</text><text fill="#000000" font-family="'Helvetica'" font-size="12" font-weight="bold" lengthAdjust="spacing" textLength="40.6641" x="131.6816" y="698.2402">borrow</text><text fill="#000000" font-family="'Helvetica'" font-size="12" lengthAdjust="spacing" textLength="58.6934" x="172.3457" y="698.2402">&lt;transfer&gt;)</text></g><path d="M179,716 L179,750 L584,750 L584,726 L574,716 L179,716" fill="#FFEBC8" style="stroke:#000000;stroke-width:1;"/><path d="M574,716 L574,726 L584,726 L574,716" fill="#FFEBC8" style="stroke:#000000;stroke-width:1;"/><text fill="#000000" font-family="'Helvetica'" font-size="12" lengthAdjust="spacing" textLength="384.0469" x="185" y="730.2402">borrow&lt;transfer&gt; &#8594; Wasmtime creates temporary slot M &#8800; owned slot K</text><text fill="#000000" font-family="'Helvetica'" font-size="12" lengthAdjust="spacing" textLength="185.3965" x="185" y="742.2402">host must NOT call table.delete(M)</text><g class="message" data-participant-1="WIT" data-participant-2="H"><polygon fill="#000000" points="466.1836,769,476.1836,773,466.1836,777,470.1836,773" style="stroke:#000000;stroke-width:1;"/><line style="stroke:#000000;stroke-width:1.2;" x1="286.0957" x2="472.1836" y1="773" y2="773"/><text fill="#000000" font-family="'Helvetica'" font-size="12" lengthAdjust="spacing" textLength="125.7129" x="293.0957" y="768.2402">await_transfer(self_=M)</text></g><g class="message" data-participant-1="H" data-participant-2="RT"><polygon fill="#000000" points="735.6328,795,745.6328,799,735.6328,803,739.6328,799" style="stroke:#000000;stroke-width:1;"/><line style="stroke:#000000;stroke-width:1.2;" x1="478.1836" x2="741.6328" y1="799" y2="799"/><text fill="#000000" font-family="'Helvetica'" font-size="12" lengthAdjust="spacing" textLength="129.375" x="485.1836" y="794.2402">take receiver from slot K</text></g><g class="message" data-participant-1="H" data-participant-2="H"><line style="stroke:#000000;stroke-width:1.2;stroke-dasharray:2,2;" x1="478.1836" x2="520.1836" y1="825" y2="825"/><line style="stroke:#000000;stroke-width:1.2;stroke-dasharray:2,2;" x1="520.1836" x2="520.1836" y1="825" y2="838"/><line style="stroke:#000000;stroke-width:1.2;stroke-dasharray:2,2;" x1="479.1836" x2="520.1836" y1="838" y2="838"/><polygon fill="#000000" points="489.1836,834,479.1836,838,489.1836,842,485.1836,838" style="stroke:#000000;stroke-width:1;"/><text fill="#000000" font-family="'Helvetica'" font-size="12" lengthAdjust="spacing" textLength="31.3477" x="485.1836" y="820.2402">.await</text></g><text fill="#000000" font-family="'Helvetica'" font-size="12" lengthAdjust="spacing" textLength="3.334" x="518.8467" y="869.2402">&#160;</text><text fill="#000000" font-family="'Helvetica'" font-size="12" font-style="italic" lengthAdjust="spacing" textLength="149.4082" x="522.1807" y="869.2402">transfer in flight on USB bus</text><text fill="#000000" font-family="'Helvetica'" font-size="12" lengthAdjust="spacing" textLength="3.334" x="671.5889" y="869.2402">&#160;</text><rect fill="#FFFFFF" height="3" style="stroke:#FFFFFF;stroke-width:1;" width="1307.5059" x="5" y="905"/><line style="stroke:#000000;stroke-width:0.5;" x1="5" x2="1312.5059" y1="905" y2="905"/><line style="stroke:#000000;stroke-width:0.5;" x1="5" x2="1312.5059" y1="908" y2="908"/><rect fill="#FFFFFF" height="20" style="stroke:#000000;stroke-width:1;" width="169.9941" x="573.7559" y="896"/><text fill="#000000" font-family="'Helvetica'" font-size="12" font-weight="bold" lengthAdjust="spacing" textLength="152.6602" x="579.7559" y="909.2402">Completion (libusb thread)</text><g class="message" data-participant-1="ET" data-participant-2="CB"><polygon fill="#000000" points="1133.7754,940,1143.7754,944,1133.7754,948,1137.7754,944" style="stroke:#000000;stroke-width:1;"/><line style="stroke:#000000;stroke-width:1.2;" x1="939.6953" x2="1139.7754" y1="944" y2="944"/><text fill="#000000" font-family="'Helvetica'" font-size="12" lengthAdjust="spacing" textLength="182.0801" x="946.6953" y="939.2402">transfer_callback(*libusb_transfer)</text></g><g class="message" data-participant-1="CB" data-participant-2="CB"><line style="stroke:#000000;stroke-width:1.2;" x1="1145.7754" x2="1187.7754" y1="982" y2="982"/><line style="stroke:#000000;stroke-width:1.2;" x1="1187.7754" x2="1187.7754" y1="982" y2="995"/><line style="stroke:#000000;stroke-width:1.2;" x1="1146.7754" x2="1187.7754" y1="995" y2="995"/><polygon fill="#000000" points="1156.7754,991,1146.7754,995,1156.7754,999,1152.7754,995" style="stroke:#000000;stroke-width:1;"/><text fill="#000000" font-family="'Helvetica'" font-size="12" lengthAdjust="spacing" textLength="100.6816" x="1152.7754" y="965.2402">Box::from_raw(ctx)</text><text fill="#000000" font-family="'Helvetica'" font-size="12" lengthAdjust="spacing" textLength="152.7305" x="1152.7754" y="977.2402">parse status / iso descriptors</text></g><g class="message" data-participant-1="CB" data-participant-2="H"><polygon fill="#000000" points="489.1836,1017,479.1836,1021,489.1836,1025,485.1836,1021" style="stroke:#000000;stroke-width:1;"/><line style="stroke:#000000;stroke-width:1.2;" x1="483.1836" x2="1144.7754" y1="1021" y2="1021"/><text fill="#000000" font-family="'Helvetica'" font-size="12" lengthAdjust="spacing" textLength="139.3887" x="495.1836" y="1016.2402">ctx.sender.send(Ok(data))</text></g><g class="message" data-participant-1="CB" data-participant-2="LU"><polygon fill="#000000" points="858.9971,1043,848.9971,1047,858.9971,1051,854.9971,1047" style="stroke:#000000;stroke-width:1;"/><line style="stroke:#000000;stroke-width:1.2;" x1="852.9971" x2="1144.7754" y1="1047" y2="1047"/><text fill="#000000" font-family="'Helvetica'" font-size="12" lengthAdjust="spacing" textLength="132.7266" x="864.9971" y="1042.2402">libusb_free_transfer(*ptr)</text></g><path d="M1008,1060 L1008,1082 L1283,1082 L1283,1070 L1273,1060 L1008,1060" fill="#FFFFFF" style="stroke:#000000;stroke-width:1;"/><path d="M1273,1060 L1273,1070 L1283,1070 L1273,1060" fill="#FFFFFF" style="stroke:#000000;stroke-width:1;"/><text fill="#000000" font-family="'Helvetica'" font-size="12" lengthAdjust="spacing" textLength="254.1211" x="1014" y="1074.2402">ctx drops here &#8594; buffer freed, Arc decremented</text><rect fill="#FFFFFF" height="3" style="stroke:#FFFFFF;stroke-width:1;" width="1307.5059" x="5" y="1106"/><line style="stroke:#000000;stroke-width:0.5;" x1="5" x2="1312.5059" y1="1106" y2="1106"/><line style="stroke:#000000;stroke-width:0.5;" x1="5" x2="1312.5059" y1="1109" y2="1109"/><rect fill="#FFFFFF" height="20" style="stroke:#000000;stroke-width:1;" width="64.0215" x="626.7422" y="1097"/><text fill="#000000" font-family="'Helvetica'" font-size="12" font-weight="bold" lengthAdjust="spacing" textLength="46.6875" x="632.7422" y="1110.2402">Resume</text><g class="message" data-participant-1="H" data-participant-2="RT"><polygon fill="#000000" points="735.6328,1141,745.6328,1145,735.6328,1149,739.6328,1145" style="stroke:#000000;stroke-width:1;"/><line style="stroke:#000000;stroke-width:1.2;" x1="478.1836" x2="741.6328" y1="1145" y2="1145"/><text fill="#000000" font-family="'Helvetica'" font-size="12" lengthAdjust="spacing" textLength="187.418" x="485.1836" y="1140.2402">read iso_packet_results from slot K</text></g><g class="message" data-participant-1="H" data-participant-2="WIT"><polygon fill="#000000" points="297.0957,1167,287.0957,1171,297.0957,1175,293.0957,1171" style="stroke:#000000;stroke-width:1;"/><line style="stroke:#000000;stroke-width:1.2;stroke-dasharray:2,2;" x1="291.0957" x2="477.1836" y1="1171" y2="1171"/><text fill="#000000" font-family="'Helvetica'" font-size="12" lengthAdjust="spacing" textLength="168.0879" x="303.0957" y="1166.2402">TransferResult { data, packets }</text></g><g class="message" data-participant-1="WIT" data-participant-2="G"><polygon fill="#000000" points="58.9941,1193,48.9941,1197,58.9941,1201,54.9941,1197" style="stroke:#000000;stroke-width:1;"/><line style="stroke:#000000;stroke-width:1.2;stroke-dasharray:2,2;" x1="52.9941" x2="285.0957" y1="1197" y2="1197"/><text fill="#000000" font-family="'Helvetica'" font-size="12" lengthAdjust="spacing" textLength="78.6914" x="64.9941" y="1192.2402">TransferResult</text></g><rect fill="#FFFFFF" height="3" style="stroke:#FFFFFF;stroke-width:1;" width="1307.5059" x="5" y="1224"/><line style="stroke:#000000;stroke-width:0.5;" x1="5" x2="1312.5059" y1="1224" y2="1224"/><line style="stroke:#000000;stroke-width:0.5;" x1="5" x2="1312.5059" y1="1227" y2="1227"/><rect fill="#FFFFFF" height="20" style="stroke:#000000;stroke-width:1;" width="166.0039" x="575.751" y="1215"/><text fill="#000000" font-family="'Helvetica'" font-size="12" font-weight="bold" lengthAdjust="spacing" textLength="148.6699" x="581.751" y="1228.2402">Drop (end of guest scope)</text><g class="message" data-participant-1="G" data-participant-2="WIT"><polygon fill="#000000" points="274.0957,1259,284.0957,1263,274.0957,1267,278.0957,1263" style="stroke:#000000;stroke-width:1;"/><line style="stroke:#000000;stroke-width:1.2;" x1="47.9941" x2="280.0957" y1="1263" y2="1263"/><text fill="#000000" font-family="'Helvetica'" font-size="12" lengthAdjust="spacing" textLength="68.0332" x="54.9941" y="1258.2402">drop transfer</text></g><g class="message" data-participant-1="WIT" data-participant-2="H"><polygon fill="#000000" points="466.1836,1285,476.1836,1289,466.1836,1293,470.1836,1289" style="stroke:#000000;stroke-width:1;"/><line style="stroke:#000000;stroke-width:1.2;" x1="286.0957" x2="472.1836" y1="1289" y2="1289"/><text fill="#000000" font-family="'Helvetica'" font-size="12" lengthAdjust="spacing" textLength="148.3887" x="293.0957" y="1284.2402">HostTransfer::drop(self_=K)</text></g><g class="message" data-participant-1="H" data-participant-2="RT"><polygon fill="#000000" points="735.6328,1311,745.6328,1315,735.6328,1319,739.6328,1315" style="stroke:#000000;stroke-width:1;"/><line style="stroke:#000000;stroke-width:1.2;" x1="478.1836" x2="741.6328" y1="1315" y2="1315"/><text fill="#000000" font-family="'Helvetica'" font-size="12" lengthAdjust="spacing" textLength="201.4277" x="485.1836" y="1310.2402">table.delete(K) &#8594; owned UsbTransfer</text></g><path d="M483,1328 L483,1386 L881,1386 L881,1338 L871,1328 L483,1328" fill="#FFFFFF" style="stroke:#000000;stroke-width:1;"/><path d="M871,1328 L871,1338 L881,1338 L871,1328" fill="#FFFFFF" style="stroke:#000000;stroke-width:1;"/><text fill="#000000" font-family="'Helvetica'" font-size="12" lengthAdjust="spacing" textLength="115.4063" x="489" y="1342.2402">Three cases handled:</text><text fill="#000000" font-family="'Helvetica'" font-size="12" lengthAdjust="spacing" textLength="280.4766" x="489" y="1354.2402">(a) completed=true   &#8594; callback already freed; no-op</text><text fill="#000000" font-family="'Helvetica'" font-size="12" lengthAdjust="spacing" textLength="377.1563" x="489" y="1366.2402">(b) receiver=Some    &#8594; in flight; libusb_cancel_transfer (callback frees)</text><text fill="#000000" font-family="'Helvetica'" font-size="12" lengthAdjust="spacing" textLength="377.168" x="489" y="1378.2402">(c) receiver=None    &#8594; never submitted; libusb_free_transfer ourselves</text><!--SRC=[RLPDR-Cs4BthLqop5rbrR6oHG-1T1uZT95xaguWTv1B0eQHnJ5WYLPAAarqKwAb0h_q5FVM7vPTqI5gIvTX0RCHyCvnvy-R9FvabvWX5nhW8z8gBWYcMWrwoLAwvU8O5opHkdQIuO6LcpgKmDumY3oQOlQ3X2JlOZvhoxmYVVzawdEBl9Oe4JvMIwzcI9ok1MiFdtZReDwOeAI-OC2EfKbHZcKa5duwEZlQakk8B-XFOWXuV7mU1uIP3U3YTVZkydux0A2Rq0XLa596y9Ha-YdwVwJUHW2xZd9i-MpDkOCtDaa1ngMF05nG6p58XI-5dcCaLbo2fwAKq_NuG54sjS71HeZQF8dnWEkySW7qn3HTjqCEt6SIo52bJRuHT4zPmOZFc8dr6GN4KGw1sL4v3wYbD0KkfZKjEi4aRT8TQbYh16OiphE-_sqdbE_F7cnUXhkxteNp_Zy8JiBdrR2TXHUmyOLaMisH5LOxXTFJDzp8U1S5m2ATP9XDc48R3u0BWy0Hibp00WUl3AaLetWhiWaPJ5bs8oyLSauQw80kZEu75Kzo4od1Xypgir-jrWedFUdLlZttzSsPlRN1Sotcniha8TMZH4mj-Uees-0hvz5IbkvjPH57g9TphU5Q9w0SKHdKXaNcHeS7KLKi7NNZ_yp_u8w2m9dyrcAzR6KuWr9aq44MNKTIb3xaMc4QHxsD3JnCAIoRI33q7zlI2ybRLEeAdJiCVwAqmFQ_nXkgK6RR3gOSqT6dC5lCkUAIGD3p5dvS6v8Aa1p0gUPP2rT2ODXvVpG-QdaXnFpUMVuMQ_44JHm3XPfK6WuJw4vX1GaAZ45YYmav0cS3UktUskzL6D97EeoWrIT6M34COoTV1W0j3jx9rc9ZNUl1dRgna8IMcxL5h8nL2lwymGVw2gjy7Bi3Dwh8zczjLUnpqlnt4WpMHq1bBvyCudCKqGuYYM5elZAAlrNSd6webtMs3kZISJ-VdPwFnCJ7cuGqOtl_w1nug4_7iQJ2O5rAHm_Ywh-7zxt_12Qng1C0Q2UGblTtSpi3kBXXh7BqKxTJ2wotwMofnBUo8P7ZTQRDes8hKig4G5ahcEnJwN3sNBA3z9SPhXoQ-5vbNcW3htJHl6WEX7C5ZBonEX-76fxn1ERhFNAdZaSl_mPl2tKtl10Hj0fnYRBcrOXxj0qSZwOAPKaFVYfYUSZfHl22fw4syxOVYAQBd5y1zXBShlsZLDLR1ZOGN2d57m5l39-S4cn1I9GljLiADssyJs63QhLELK3aq-PoiciHS3yrIHVPHvivpMzDnZpDdXaG9cdedzyp9IxrQyZi79FUpJNN1XzjTRYr26-qA-PLQWD3MHkRnR1-Ke1DPuCSDiSqspjPIteGaM-KU32nmexxB3-hR4l9bnx7cvR_bm7iSRKOoeYrYcdR86suwi3R5EesR3OqgaSgnEIjL0SiifMz-9b-8_qDPsC2uKo_1S2fp6-S2QuL_gQIGCFenazLYWB3ERNFI4uko9LlPRiWwgsm2hLoy7nfx_pvv0Jr7jFt5fXk9_0y0]--></g></svg>