<svg xmlns="http://www.w3.org/2000/svg" xmlns:xlink="http://www.w3.org/1999/xlink" contentStyleType="text/css" data-diagram-type="DESCRIPTION" height="504px" preserveAspectRatio="none" style="width:2004px;height:504px;background:#FFFFFF;" version="1.1" viewBox="0 0 2004 504" width="2004px" zoomAndPan="magnify"><title>&lt;size:16&gt;&lt;b&gt;WASI-USB Webcam - Architectuuroverzicht&lt;/b&gt;&lt;/size&gt;</title><defs/><g><g class="title" data-source-line="31"><text fill="#000000" font-family="'Liberation Sans'" font-size="16" font-weight="bold" lengthAdjust="spacing" textLength="354.7734" x="817.8234" y="25.4688">WASI-USB Webcam - Architectuuroverzicht</text></g><!--cluster SANDBOX--><g class="cluster" data-entity="SANDBOX" data-source-line="34" data-uid="ent0002" id="cluster_SANDBOX"><rect fill="#EEF5FF" height="389.38" rx="4" ry="4" style="stroke:#2255AA;stroke-width:2;" width="601" x="7" y="109.0838"/><text fill="#000000" font-family="'Liberation Sans'" font-size="13" font-style="italic" lengthAdjust="spacing" textLength="67.8184" x="273.5908" y="123.6521">&#171;sandbox&#187;</text><text fill="#000000" font-family="'Liberation Sans'" font-size="13" font-weight="bold" lengthAdjust="spacing" textLength="216.4995" x="201.3926" y="138.9627">WASM Sandbox  (webcam.wasm)</text></g><!--cluster RUNTIME--><g class="cluster" data-entity="RUNTIME" data-source-line="50" data-uid="ent0010" id="cluster_RUNTIME"><rect fill="#EFFFEF" height="389.38" rx="4" ry="4" style="stroke:#2A7A2A;stroke-width:2;" width="720" x="1094" y="101.4237"/><text fill="#000000" font-family="'Liberation Sans'" font-size="13" font-style="italic" lengthAdjust="spacing" textLength="63.0767" x="1422.4617" y="115.9921">&#171;runtime&#187;</text><text fill="#000000" font-family="'Liberation Sans'" font-size="13" font-weight="bold" lengthAdjust="spacing" textLength="210.3232" x="1353.123" y="131.3027">Host Runtime  (usb-wasi-host)</text></g><!--entity RW--><g class="entity" data-entity="RW" data-source-line="36" data-uid="ent0003" id="entity_RW"><rect fill="#DDEEFF" height="87.709" rx="4" ry="4" style="stroke:#2255AA;stroke-width:0.5;" width="289.7168" x="31.14" y="199.0838"/><rect fill="#DDEEFF" height="10" style="stroke:#2255AA;stroke-width:0.5;" width="15" x="300.8568" y="204.0838"/><rect fill="#DDEEFF" height="2" style="stroke:#2255AA;stroke-width:0.5;" width="4" x="298.8568" y="206.0838"/><rect fill="#DDEEFF" height="2" style="stroke:#2255AA;stroke-width:0.5;" width="4" x="298.8568" y="210.0838"/><text fill="#1A3D6E" font-family="'Liberation Sans'" font-size="13" font-style="italic" lengthAdjust="spacing" textLength="48.5278" x="146.7345" y="231.6521">&#171;guest&#187;</text><text fill="#1A3D6E" font-family="'Liberation Sans'" font-size="13" lengthAdjust="spacing" textLength="87.8262" x="46.14" y="246.9627">run_webcam()</text><text fill="#1A3D6E" font-family="'Liberation Sans'" font-size="10" lengthAdjust="spacing" textLength="88.3008" x="46.14" y="259.3728">main capture loop</text><text fill="#1A3D6E" font-family="'Liberation Sans'" font-size="13" lengthAdjust="spacing" textLength="249.7168" x="46.14" y="274.0505">std::fs::write(\"out/latest.jpg\")&lt;/size&gt;</text></g><!--entity WFS--><g class="entity" data-entity="WFS" data-source-line="37" data-uid="ent0004" id="entity_WFS"><rect fill="#DDEEFF" height="103.0195" rx="4" ry="4" style="stroke:#2255AA;stroke-width:0.5;" width="197.0029" x="77.5" y="371.4438"/><rect fill="#DDEEFF" height="10" style="stroke:#2255AA;stroke-width:0.5;" width="15" x="254.5029" y="376.4438"/><rect fill="#DDEEFF" height="2" style="stroke:#2255AA;stroke-width:0.5;" width="4" x="252.5029" y="378.4438"/><rect fill="#DDEEFF" height="2" style="stroke:#2255AA;stroke-width:0.5;" width="4" x="252.5029" y="382.4438"/><text fill="#1A3D6E" font-family="'Liberation Sans'" font-size="13" font-style="italic" lengthAdjust="spacing" textLength="48.5278" x="146.7375" y="404.0121">&#171;guest&#187;</text><text fill="#1A3D6E" font-family="'Liberation Sans'" font-size="13" lengthAdjust="spacing" textLength="135.1099" x="92.5" y="419.3227">WebcamFrameStream</text><text fill="#1A3D6E" font-family="'Liberation Sans'" font-size="10" lengthAdjust="spacing" textLength="78.8379" x="92.5" y="431.7328">UVC negotiation</text><text fill="#1A3D6E" font-family="'Liberation Sans'" font-size="13" lengthAdjust="spacing" textLength="95.6719" x="92.5" y="446.4105">FID reassembly</text><text fill="#1A3D6E" font-family="'Liberation Sans'" font-size="13" lengthAdjust="spacing" textLength="157.0029" x="92.5" y="461.7211">MJPEG validation&lt;/size&gt;</text></g><!--entity WASIFSGUEST--><g class="entity" data-entity="WASIFSGUEST" data-source-line="38" data-uid="ent0005" id="entity_WASIFSGUEST"><rect fill="#DDEEFF" height="72.3984" rx="4" ry="4" style="stroke:#2255AA;stroke-width:0.5;" width="144.6484" x="419.68" y="206.7338"/><rect fill="#DDEEFF" height="10" style="stroke:#2255AA;stroke-width:0.5;" width="15" x="544.3284" y="211.7338"/><rect fill="#DDEEFF" height="2" style="stroke:#2255AA;stroke-width:0.5;" width="4" x="542.3284" y="213.7338"/><rect fill="#DDEEFF" height="2" style="stroke:#2255AA;stroke-width:0.5;" width="4" x="542.3284" y="217.7338"/><text fill="#1A3D6E" font-family="'Liberation Sans'" font-size="13" font-style="italic" lengthAdjust="spacing" textLength="48.5278" x="462.7403" y="239.3021">&#171;guest&#187;</text><text fill="#1A3D6E" font-family="'Liberation Sans'" font-size="13" lengthAdjust="spacing" textLength="100.9658" x="434.68" y="254.6127">WASI Filesystem</text><text fill="#1A3D6E" font-family="'Liberation Sans'" font-size="10" lengthAdjust="spacing" textLength="104.6484" x="434.68" y="267.0228">wasi:filesystem/types</text></g><!--entity HDH--><g class="entity" data-entity="HDH" data-source-line="52" data-uid="ent0011" id="entity_HDH"><rect fill="#DFFFDF" height="103.0195" rx="4" ry="4" style="stroke:#2A7A2A;stroke-width:0.5;" width="177.1221" x="1118.44" y="191.4237"/><rect fill="#DFFFDF" height="10" style="stroke:#2A7A2A;stroke-width:0.5;" width="15" x="1275.5621" y="196.4237"/><rect fill="#DFFFDF" height="2" style="stroke:#2A7A2A;stroke-width:0.5;" width="4" x="1273.5621" y="198.4237"/><rect fill="#DFFFDF" height="2" style="stroke:#2A7A2A;stroke-width:0.5;" width="4" x="1273.5621" y="202.4237"/><text fill="#1B4A1B" font-family="'Liberation Sans'" font-size="13" font-style="italic" lengthAdjust="spacing" textLength="41.1646" x="1181.4188" y="223.9921">&#171;host&#187;</text><text fill="#1B4A1B" font-family="'Liberation Sans'" font-size="13" lengthAdjust="spacing" textLength="114.3784" x="1133.44" y="239.3027">HostDeviceHandle</text><text fill="#1B4A1B" font-family="'Liberation Sans'" font-size="10" lengthAdjust="spacing" textLength="62.4805" x="1133.44" y="251.7128">new_transfer</text><text fill="#1B4A1B" font-family="'Liberation Sans'" font-size="13" lengthAdjust="spacing" textLength="95.1006" x="1133.44" y="266.3905">claim_interface</text><text fill="#1B4A1B" font-family="'Liberation Sans'" font-size="13" lengthAdjust="spacing" textLength="137.1221" x="1133.44" y="281.7011">set_altsetting&lt;/size&gt;</text></g><!--entity HT--><g class="entity" data-entity="HT" data-source-line="53" data-uid="ent0012" id="entity_HT"><rect fill="#DFFFDF" height="103.0195" rx="4" ry="4" style="stroke:#2A7A2A;stroke-width:0.5;" width="205.0137" x="1330.49" y="191.4237"/><rect fill="#DFFFDF" height="10" style="stroke:#2A7A2A;stroke-width:0.5;" width="15" x="1515.5037" y="196.4237"/><rect fill="#DFFFDF" height="2" style="stroke:#2A7A2A;stroke-width:0.5;" width="4" x="1513.5037" y="198.4237"/><rect fill="#DFFFDF" height="2" style="stroke:#2A7A2A;stroke-width:0.5;" width="4" x="1513.5037" y="202.4237"/><text fill="#1B4A1B" font-family="'Liberation Sans'" font-size="13" font-style="italic" lengthAdjust="spacing" textLength="41.1646" x="1407.4146" y="223.9921">&#171;host&#187;</text><text fill="#1B4A1B" font-family="'Liberation Sans'" font-size="13" lengthAdjust="spacing" textLength="81.7832" x="1345.49" y="239.3027">HostTransfer</text><text fill="#1B4A1B" font-family="'Liberation Sans'" font-size="10" lengthAdjust="spacing" textLength="76.5625" x="1345.49" y="251.7128">submit_transfer</text><text fill="#1B4A1B" font-family="'Liberation Sans'" font-size="13" lengthAdjust="spacing" textLength="88.8926" x="1345.49" y="266.3905">await_transfer</text><text fill="#1B4A1B" font-family="'Liberation Sans'" font-size="13" lengthAdjust="spacing" textLength="165.0137" x="1345.49" y="281.7011">(oneshot channel)&lt;/size&gt;</text></g><!--entity LB--><g class="entity" data-entity="LB" data-source-line="54" data-uid="ent0013" id="entity_LB"><rect fill="#DFFFDF" height="87.709" rx="4" ry="4" style="stroke:#2A7A2A;stroke-width:0.5;" width="214.3638" x="1325.82" y="379.1038"/><rect fill="#DFFFDF" height="10" style="stroke:#2A7A2A;stroke-width:0.5;" width="15" x="1520.1838" y="384.1038"/><rect fill="#DFFFDF" height="2" style="stroke:#2A7A2A;stroke-width:0.5;" width="4" x="1518.1838" y="386.1038"/><rect fill="#DFFFDF" height="2" style="stroke:#2A7A2A;stroke-width:0.5;" width="4" x="1518.1838" y="390.1038"/><text fill="#1B4A1B" font-family="'Liberation Sans'" font-size="13" font-style="italic" lengthAdjust="spacing" textLength="41.1646" x="1407.4196" y="411.6721">&#171;host&#187;</text><text fill="#1B4A1B" font-family="'Liberation Sans'" font-size="13" lengthAdjust="spacing" textLength="94.1548" x="1340.82" y="426.9827">LibusbBackend</text><text fill="#1B4A1B" font-family="'Liberation Sans'" font-size="10" lengthAdjust="spacing" textLength="91.1279" x="1340.82" y="439.3928">list_devices / open</text><text fill="#1B4A1B" font-family="'Liberation Sans'" font-size="13" lengthAdjust="spacing" textLength="174.3638" x="1340.82" y="454.0705">libusb event thread&lt;/size&gt;</text></g><!--entity WASIHOST--><g class="entity" data-entity="WASIHOST" data-source-line="55" data-uid="ent0014" id="entity_WASIHOST"><rect fill="#DFFFDF" height="87.709" rx="4" ry="4" style="stroke:#2A7A2A;stroke-width:0.5;" width="200.145" x="1570.93" y="199.0838"/><rect fill="#DFFFDF" height="10" style="stroke:#2A7A2A;stroke-width:0.5;" width="15" x="1751.075" y="204.0838"/><rect fill="#DFFFDF" height="2" style="stroke:#2A7A2A;stroke-width:0.5;" width="4" x="1749.075" y="206.0838"/><rect fill="#DFFFDF" height="2" style="stroke:#2A7A2A;stroke-width:0.5;" width="4" x="1749.075" y="210.0838"/><text fill="#1B4A1B" font-family="'Liberation Sans'" font-size="13" font-style="italic" lengthAdjust="spacing" textLength="41.1646" x="1645.4202" y="231.6521">&#171;host&#187;</text><text fill="#1B4A1B" font-family="'Liberation Sans'" font-size="13" lengthAdjust="spacing" textLength="87.3057" x="1585.93" y="246.9627">WASI Runtime</text><text fill="#1B4A1B" font-family="'Liberation Sans'" font-size="10" lengthAdjust="spacing" textLength="75.415" x="1585.93" y="259.3728">wasmtime_wasi</text><text fill="#1B4A1B" font-family="'Liberation Sans'" font-size="13" lengthAdjust="spacing" textLength="160.145" x="1585.93" y="274.0505">stdio &#183; filesystem&lt;/size&gt;</text></g><!--entity WIT--><g class="entity" data-entity="WIT" data-source-line="45" data-uid="ent0008" id="entity_WIT"><rect fill="#FFE8D6" height="87.709" rx="4" ry="4" style="stroke:#CC5500;stroke-width:0.5;" width="182.2256" x="887.89" y="199.0838"/><rect fill="#FFE8D6" height="10" style="stroke:#CC5500;stroke-width:0.5;" width="15" x="1050.1156" y="204.0838"/><rect fill="#FFE8D6" height="2" style="stroke:#CC5500;stroke-width:0.5;" width="4" x="1048.1156" y="206.0838"/><rect fill="#FFE8D6" height="2" style="stroke:#CC5500;stroke-width:0.5;" width="4" x="1048.1156" y="210.0838"/><text fill="#7A2800" font-family="'Liberation Sans'" font-size="13" font-style="italic" lengthAdjust="spacing" textLength="32.2588" x="957.8734" y="231.6521">&#171;wit&#187;</text><text fill="#7A2800" font-family="'Liberation Sans'" font-size="13" font-weight="bold" lengthAdjust="spacing" textLength="88.5244" x="902.89" y="246.9627">WIT Interface</text><text fill="#7A2800" font-family="'Liberation Sans'" font-size="13" lengthAdjust="spacing" textLength="142.2256" x="902.89" y="262.2732">component:usb@0.2.1</text><text fill="#7A2800" font-family="'Liberation Sans'" font-size="10" lengthAdjust="spacing" textLength="135.8008" x="902.89" y="274.6834">device &#183; transfers &#183; transfers</text></g><!--entity USB--><g class="entity" data-entity="USB" data-source-line="64" data-uid="ent0018" id="entity_USB"><rect fill="#FFF3CC" height="87.709" rx="4" ry="4" style="stroke:#B8860B;stroke-width:0.5;" width="160.8403" x="1837.58" y="379.1038"/><rect fill="#FFF3CC" height="10" style="stroke:#B8860B;stroke-width:0.5;" width="15" x="1978.4203" y="384.1038"/><rect fill="#FFF3CC" height="2" style="stroke:#B8860B;stroke-width:0.5;" width="4" x="1976.4203" y="386.1038"/><rect fill="#FFF3CC" height="2" style="stroke:#B8860B;stroke-width:0.5;" width="4" x="1976.4203" y="390.1038"/><text fill="#5C4000" font-family="'Liberation Sans'" font-size="13" font-style="italic" lengthAdjust="spacing" textLength="31.7065" x="1897.1469" y="411.6721">&#171;hw&#187;</text><text fill="#5C4000" font-family="'Liberation Sans'" font-size="13" lengthAdjust="spacing" textLength="68.9673" x="1852.58" y="426.9827">USB Device</text><text fill="#5C4000" font-family="'Liberation Sans'" font-size="10" lengthAdjust="spacing" textLength="79.2969" x="1852.58" y="439.3928">Logitech Brio 4K</text><text fill="#5C4000" font-family="'Liberation Sans'" font-size="13" lengthAdjust="spacing" textLength="120.8403" x="1852.58" y="454.0705">046d:086c&lt;/size&gt;</text></g><g class="entity" data-entity="GMN22" data-source-line="73" data-uid="ent0023" id="entity_GMN22"><path d="M836.14,398.9838 L836.14,446.9154 A4,4 0 0 0 840.14,450.9154 L1065.869,450.9154 A4,4 0 0 0 1069.869,446.9154 L1069.869,404.9838 L1059.869,394.9838 L961.01,394.9838 L972.71,287.0238 L953.01,394.9838 L840.14,394.9838 A4,4 0 0 0 836.14,398.9838" fill="#FEFFDD" style="stroke:#181818;stroke-width:0.5;"/><path d="M1059.869,394.9838 L1059.869,402.9838 A2,2 0 0 0 1061.869,404.9838 L1069.869,404.9838 L1059.869,394.9838" fill="#FEFFDD" style="stroke:#181818;stroke-width:0.5;"/><text fill="#000000" font-family="'Liberation Sans'" font-size="13" font-weight="bold" lengthAdjust="spacing" textLength="155.9111" x="842.14" y="412.5521">Capability enforcement</text><text fill="#000000" font-family="'Liberation Sans'" font-size="13" lengthAdjust="spacing" textLength="212.729" x="842.14" y="427.8627">AllowedUSBDevices filters VID:PID</text><text fill="#000000" font-family="'Liberation Sans'" font-size="13" lengthAdjust="spacing" textLength="209.0728" x="842.14" y="443.1732">before populating ResourceTable</text></g><!--link RW to WFS--><g class="link" data-entity-1="RW" data-entity-2="WFS" data-source-line="40" data-uid="lnk6" id="link_RW_WFS"><path d="M176,287.0238 C176,312.3438 176,338.4738 176,365.0338" fill="none" id="RW-to-WFS" style="stroke:#444444;stroke-width:1;"/><polygon fill="#444444" points="176,371.0338,180,362.0338,176,366.0338,172,362.0338,176,371.0338" style="stroke:#444444;stroke-width:1;"/><text fill="#000000" font-family="'Liberation Sans'" font-size="13" lengthAdjust="spacing" textLength="127.0801" x="177" y="338.0121">capture_uvc_frame()</text></g><!--link RW to WASIFSGUEST--><g class="link" data-entity-1="RW" data-entity-2="WASIFSGUEST" data-source-line="41" data-uid="lnk7" id="link_RW_WASIFSGUEST"><path d="M321.05,242.9338 C355.12,242.9338 384,242.9338 413.3,242.9338" fill="none" id="RW-to-WASIFSGUEST" style="stroke:#444444;stroke-width:1;"/><polygon fill="#444444" points="419.3,242.9338,410.3,238.9338,414.3,242.9338,410.3,246.9338,419.3,242.9338" style="stroke:#444444;stroke-width:1;"/><text fill="#000000" font-family="'Liberation Sans'" font-size="13" lengthAdjust="spacing" textLength="62.9814" x="339.27" y="236.5021">write JPEG</text></g><!--link SANDBOX to WIT--><g class="link" data-entity-1="SANDBOX" data-entity-2="WIT" data-source-line="47" data-uid="lnk9" id="link_SANDBOX_WIT"><path d="M608.2119,242.9338 C608.3674,242.9338 608.525,242.9338 608.6846,242.9338 C609.0039,242.9338 609.3313,242.9338 609.6668,242.9338 C610.3378,242.9338 611.0412,242.9338 611.7761,242.9338 C617.6551,242.9338 625.5512,242.9338 635.0442,242.9338 C654.0303,242.9338 679.4044,242.9338 707.8062,242.9338 C764.61,242.9338 827.525,242.9338 881.67,242.9338" fill="none" id="SANDBOX-to-WIT" style="stroke:#444444;stroke-width:1;"/><polygon fill="#444444" points="887.67,242.9338,878.67,238.9338,882.67,242.9338,878.67,246.9338,887.67,242.9338" style="stroke:#444444;stroke-width:1;"/><text fill="#000000" font-family="'Liberation Sans'" font-size="13" lengthAdjust="spacing" textLength="76.0703" x="706.3859" y="209.5021">WIT imports</text><text fill="#000000" font-family="'Liberation Sans'" font-size="10" lengthAdjust="spacing" textLength="150.6152" x="669.1134" y="221.9123">new_transfer / submit_transfer</text><text fill="#000000" font-family="'Liberation Sans'" font-size="13" lengthAdjust="spacing" textLength="251.6021" x="618.62" y="236.59">await_transfer / claim_interface&lt;/size&gt;</text></g><!--link HDH to LB--><g class="link" data-entity-1="HDH" data-entity-2="LB" data-source-line="57" data-uid="lnk15" id="link_HDH_LB"><path d="M1271.46,294.7138 C1305.12,321.2238 1341.167,349.6105 1373.317,374.9405" fill="none" id="HDH-to-LB" style="stroke:#444444;stroke-width:1;"/><polygon fill="#444444" points="1378.03,378.6538,1373.436,369.942,1374.1025,375.5594,1368.4851,376.2259,1378.03,378.6538" style="stroke:#444444;stroke-width:1;"/></g><!--link HT to LB--><g class="link" data-entity-1="HT" data-entity-2="LB" data-source-line="58" data-uid="lnk16" id="link_HT_LB"><path d="M1433,294.4738 C1433,321.0938 1433,347.4038 1433,372.8338" fill="none" id="HT-to-LB" style="stroke:#444444;stroke-width:1;"/><polygon fill="#444444" points="1433,378.8338,1437,369.8338,1433,373.8338,1429,369.8338,1433,378.8338" style="stroke:#444444;stroke-width:1;"/></g><!--link WIT to RUNTIME--><g class="link" data-entity-1="WIT" data-entity-2="RUNTIME" data-source-line="61" data-uid="lnk17" id="link_WIT_RUNTIME"><path d="M1001.76,198.7538 C1022.57,163.6737 1056.95,117.1238 1102,96.0938 C1170.97,63.8938 1729.83,45.8438 1787,96.0938 C1810.555,116.7988 1815.975,151.1188 1815.195,181.375 C1815.0975,185.157 1814.9031,188.8756 1814.6352,192.4961 C1814.5012,194.3063 1814.3489,196.0921 1814.181,197.849 C1814.1391,198.2882 1814.6971,192.7558 1814.6533,193.1914" fill="none" id="WIT-to-RUNTIME" style="stroke:#444444;stroke-width:1;"/><polygon fill="#444444" points="1814.0523,199.1612,1818.9337,190.6072,1814.5531,194.1864,1810.9739,189.8058,1814.0523,199.1612" style="stroke:#444444;stroke-width:1;"/><text fill="#000000" font-family="'Liberation Sans'" font-size="13" lengthAdjust="spacing" textLength="75.3911" x="1234.6975" y="61.9921">WIT exports</text><text fill="#000000" font-family="'Liberation Sans'" font-size="10" lengthAdjust="spacing" textLength="105.7861" x="1219.5" y="74.4023">host implementations</text></g><!--link LB to USB--><g class="link" data-entity-1="LB" data-entity-2="USB" data-source-line="66" data-uid="lnk19" id="link_LB_USB"><path d="M1540.64,422.9538 C1630.36,422.9538 1750.2,422.9538 1831.41,422.9538" fill="none" id="LB-to-USB" style="stroke:#444444;stroke-width:1;"/><polygon fill="#444444" points="1837.41,422.9538,1828.41,418.9538,1832.41,422.9538,1828.41,426.9538,1837.41,422.9538" style="stroke:#444444;stroke-width:1;"/><text fill="#000000" font-family="'Liberation Sans'" font-size="13" lengthAdjust="spacing" textLength="74.3628" x="1651.785" y="404.5221">libusb1-sys</text><text fill="#000000" font-family="'Liberation Sans'" font-size="10" lengthAdjust="spacing" textLength="77.1729" x="1650.38" y="416.9323">ISO IN / Control</text></g><!--link WASIFSGUEST to WASIHOST--><g class="link" data-entity-1="WASIFSGUEST" data-entity-2="WASIHOST" data-source-line="69" data-uid="lnk20" id="link_WASIFSGUEST_WASIHOST"><path d="M500.41,206.3838 C510.31,172.6538 530.42,124.5138 568,102.0938 C661.98,46.0138 1453.83,55.8037 1553,102.0938 C1595.49,121.9237 1625.0035,160.2785 1645.0635,193.7185" fill="none" id="WASIFSGUEST-to-WASIHOST" style="stroke:#444444;stroke-width:1;stroke-dasharray:7,7;"/><polygon fill="#444444" points="1648.15,198.8637,1646.9504,189.0882,1645.5779,194.5761,1640.0901,193.2036,1648.15,198.8637" style="stroke:#444444;stroke-width:1;"/><text fill="#000000" font-family="'Liberation Sans'" font-size="13" lengthAdjust="spacing" textLength="89.0195" x="1405.5" y="67.9921">preopened dir</text><text fill="#000000" font-family="'Liberation Sans'" font-size="13" lengthAdjust="spacing" textLength="4.1133" x="1640.1982" y="188.2372">.</text></g><!--link WASIHOST to USB--><!--SRC=[rLVTZk8s5BxFKrXmKUO21fY1eWYX0e4bxVoi1cQdKgcGanZYRc97jZFPsQfI7wBlqli-If-anma_1e9wkuEGHiIVpvVpdNC-U-HdoX8iS8m2iiPffAQSgGSS4rIvenuHM57Eq1mpMR5a6NPElnBKkZ4MXqBmRCmZBb3rDlyOYpB40Syesw0rZYGnLfvuoe8n5um8rBEC1P_72MU4AVIxXU0pmlxdZIZGGDBlRr8YrM00IrN7cKocqmB6HK346KH_gkrsfpCSvZ2TGoa8OAtXZTETb9E6V8UjEjFfr2aXFK0Aqk7tm_OPwJ58auvkXwtH1T9i1wq2vyruN4AQ7KKRzNhTvkYCz0W4iCxujjbibfDcTFU2G3hfETrpqWCaXut7dSusca5w308OoD43s1zciGNn5MQRY5mgjiGiyFWN7QaAjUwKLTl0d9Qxm2r2wdzcHCeZRBkSKQHCqPWKZ23xf8JHm9pM-epHmBPryeegIBSlOP3iLdVGzmOlmxbRVvwFq0lnV12b3ZFbXrI1Dcag-2iHNwaVglwrD-XVwtq3o_eE_VlNdyKNmVvxFRCwiSFZT_Ir3crGESu6rR9SaqQ6PNnLGMO1iKJpuOCpUlmPcYVN_c0T5L1zLMojNItPLktc8CQK8HydAXK4HPmdIoPLODjhQTkP0CbhomfFrNM45PX3uxTaiwnSRKNNx3lF0EwdbrFEednJw6ioLuBWs21-_ZH6Z6ouehd5BjdKTQ3xiPGazgAt9Rl_yUFa0th54GroH3dfotH-nWhTWwOq8l9DAc9oWcRKNkzNhjLRGkI5k11aEl_mF9al2YcVNb0Td9lL1veJsJlHLkchlrhh56jNUw2Wcr1fv24AxCZrH3ejtVP73Uik46MAY3Ns2VBqy67nzksshcN8hUSLNj_TlRwUoYNR0-nKUZyq6-r6ooX4G5uf9FhFtqW9E5hNHCYZ7qPD2jVK5N6X4hl-FYZiQcLp_O1GA6cmC9AjTY7HDPAf5rErVx9aECF6Rq3u4QRnYXuoAV6M6PnNwAcmi7VfBQVsSfmHga6zwdfGwlfapXtcODXwofyV5kxzfCHXT1mdB-mCB2aY5oe1lN4iCpWEKIiSAVYZu6Pa57zxEG3QcJChurliW-wv_gVCIrQ3_JBa2laXPen4L-M4YrC-k0-2Dlfu92mm22CgrQheQ0bDn1C2RXRbO4HUzLOLWh45fJHterBxsfRZsBjY_MYbQvERDELwPWvsLXfVHvizxamCLDoxs9PvjZ2VW2_fMTgFrwxQnOYHBwSZfedqv4KaXfVFVLgMZmqMGOR5knsPI-wdRob5qnkgtF6Dlgo4Q2IWIBS_BLdpjXlOpLxNDukK5IM249PrDpg8hcFQgEYWLXsAQuHsvu_8VO0s6yF5Kl3eqlt7DHe39LY5txhmbdbMDd8f6eDz-u8UYI1wj4Y00YfGfL6nzelrNq8Q18JzQYXeMOmhVPOgnMF4r_dvWH2SLcESO8z6LBqXmjPS-7dlwcCBreTHn3CIG01dEz6WezBdqoVNiJ-w3c0y0hi8IdYImhL8_o_tH2HF8T02Un6nm1wG9hV-0m00]--></g></svg>